<?xml version="1.0" encoding="UTF-8" standalone="no"?>
<svg
   viewBox="0 0 210 297"
   version="1.1"
   id="svg48"
   sodipodi:docname="code-correct.svg"
   width="210mm"
   height="297mm"
   inkscape:version="1.4.2 (ebf0e940d0, 2025-05-08)"
   xmlns:inkscape="http://www.inkscape.org/namespaces/inkscape"
   xmlns:sodipodi="http://sodipodi.sourceforge.net/DTD/sodipodi-0.dtd"
   xmlns="http://www.w3.org/2000/svg"
   xmlns:svg="http://www.w3.org/2000/svg">
  <defs
     id="defs48" />
  <sodipodi:namedview
     id="namedview48"
     pagecolor="#505050"
     bordercolor="#eeeeee"
     borderopacity="1"
     inkscape:showpageshadow="0"
     inkscape:pageopacity="0"
     inkscape:pagecheckerboard="0"
     inkscape:deskcolor="#505050"
     inkscape:zoom="1.456229"
     inkscape:cx="391.42197"
     inkscape:cy="968.59769"
     inkscape:window-width="2560"
     inkscape:window-height="1368"
     inkscape:window-x="0"
     inkscape:window-y="0"
     inkscape:window-maximized="1"
     inkscape:current-layer="svg48"
     inkscape:document-units="mm" />
  <!-- DIN A4 Brief Format: 210mm x 297mm -->
  <!-- Weißer/transparenter Hintergrund -->
  <rect
     width="210"
     height="297"
     fill="#ffffff"
     id="rect1"
     x="0"
     y="0" />
  <!-- Dekorative Girlande oben -->
  <path
     d="m 30,35 q 20,10 40,0 20,-10 40,0 20,10 40,0 20,-10 30,0"
     stroke="#2d5a3d"
     stroke-width="3"
     fill="none"
     id="path1" />
  <!-- Kleine Kugeln an der Girlande -->
  <circle
     cx="50"
     cy="42"
     r="3"
     fill="#c41e3a"
     id="circle1" />
  <circle
     cx="90"
     cy="35"
     r="3"
     fill="#ffd700"
     id="circle2" />
  <circle
     cx="130"
     cy="35"
     r="3"
     fill="#c41e3a"
     id="circle3" />
  <circle
     cx="165"
     cy="38"
     r="3"
     fill="#ffd700"
     id="circle4" />
  <!-- Weihnachtsbaum -->
  <polygon
     points="85,130 65,160 145,160 125,130 135,130 115,100 125,100 105,70 85,100 95,100 75,130 "
     fill="#2d5a3d"
     id="polygon4" />
  <polygon
     points="95,120 80,145 130,145 115,120 125,120 110,95 120,95 105,70 90,95 100,95 85,120 "
     fill="#3d7a4d"
     id="polygon5" />
  <!-- Baumstamm -->
  <rect
     x="95"
     y="160"
     width="20"
     height="15"
     fill="#654321"
     id="rect5" />
  <!-- Großer Stern auf dem Baum -->
  <polygon
     points="110,76 105,72 100,76 102,70 97,66 103,66 105,60 107,66 113,66 108,70 "
     fill="#ffd700"
     id="polygon6" />
  <polygon
     points="109,72.5 105,69.5 101,72.5 102.5,68 99,65 103.5,65 105,60 106.5,65 111,65 107.5,68 "
     fill="#ffed4e"
     id="polygon7" />
  <!-- Weihnachtskugeln am Baum -->
  <circle
     cx="95"
     cy="110"
     r="5"
     fill="#c41e3a"
     id="circle7" />
  <circle
     cx="94"
     cy="109"
     r="2"
     fill="#ff6b6b"
     opacity="0.7"
     id="circle8" />
  <circle
     cx="115"
     cy="115"
     r="5"
     fill="#ffd700"
     id="circle9" />
  <circle
     cx="114"
     cy="114"
     r="2"
     fill="#ffed4e"
     opacity="0.7"
     id="circle10" />
  <circle
     cx="105"
     cy="135"
     r="5"
     fill="#4169e1"
     id="circle11" />
  <circle
     cx="104"
     cy="134"
     r="2"
     fill="#6495ed"
     opacity="0.7"
     id="circle12" />
  <circle
     cx="85"
     cy="145"
     r="4"
     fill="#ffd700"
     id="circle13" />
  <circle
     cx="84"
     cy="144"
     r="1.5"
     fill="#ffed4e"
     opacity="0.7"
     id="circle14" />
  <circle
     cx="120"
     cy="140"
     r="4"
     fill="#c41e3a"
     id="circle15" />
  <circle
     cx="119"
     cy="139"
     r="1.5"
     fill="#ff6b6b"
     opacity="0.7"
     id="circle16" />
  <!-- Lichterkette am Baum -->
  <circle
     cx="90"
     cy="105"
     r="1.5"
     fill="#ffed4e"
     id="circle17" />
  <circle
     cx="100"
     cy="108"
     r="1.5"
     fill="#ffed4e"
     id="circle18" />
  <circle
     cx="110"
     cy="105"
     r="1.5"
     fill="#ffed4e"
     id="circle19" />
  <circle
     cx="120"
     cy="110"
     r="1.5"
     fill="#ffed4e"
     id="circle20" />
  <circle
     cx="95"
     cy="125"
     r="1.5"
     fill="#ffed4e"
     id="circle21" />
  <circle
     cx="115"
     cy="128"
     r="1.5"
     fill="#ffed4e"
     id="circle22" />
  <circle
     cx="105"
     cy="148"
     r="1.5"
     fill="#ffed4e"
     id="circle23" />
  <!-- Geschenke unter dem Baum -->
  <rect
     x="65"
     y="165"
     width="22"
     height="18"
     fill="#c41e3a"
     id="rect23" />
  <rect
     x="66"
     y="170"
     width="20"
     height="3"
     fill="#ffd700"
     id="rect24" />
  <rect
     x="74.5"
     y="165"
     width="3"
     height="18"
     fill="#ffd700"
     id="rect25" />
  <polygon
     points="82,161 87,165 76,165 "
     fill="#c41e3a"
     id="polygon25" />
  <rect
     x="125"
     y="165"
     width="25"
     height="20"
     fill="#4169e1"
     id="rect26" />
  <rect
     x="126"
     y="172"
     width="23"
     height="3"
     fill="#ffd700"
     id="rect27" />
  <rect
     x="136"
     y="165"
     width="3"
     height="20"
     fill="#ffd700"
     id="rect28" />
  <polygon
     points="144,160 150,165 137.5,165 "
     fill="#4169e1"
     id="polygon28" />
  <rect
     x="92"
     y="175"
     width="18"
     height="15"
     fill="#2d5a3d"
     id="rect29" />
  <rect
     x="93"
     y="180"
     width="16"
     height="2.5"
     fill="#c41e3a"
     id="rect30" />
  <rect
     x="100"
     y="175"
     width="2.5"
     height="15"
     fill="#c41e3a"
     id="rect31" />
  <polygon
     points="106,171 110,175 101,175 "
     fill="#2d5a3d"
     id="polygon31" />
  <!-- Schneeflocken -->
  <g
     fill="#87ceeb"
     id="g36">
    <circle
       cx="25"
       cy="95"
       r="2.5"
       opacity="0.8"
       id="circle31" />
    <circle
       cx="185"
       cy="110"
       r="3"
       opacity="0.7"
       id="circle32" />
    <circle
       cx="40"
       cy="140"
       r="2"
       opacity="0.9"
       id="circle33" />
    <circle
       cx="170"
       cy="145"
       r="2.5"
       opacity="0.8"
       id="circle34" />
    <circle
       cx="30"
       cy="200"
       r="3"
       opacity="0.7"
       id="circle35" />
    <circle
       cx="180"
       cy="210"
       r="2.5"
       opacity="0.8"
       id="circle36" />
  </g>
  <!-- Dekorative Stechpalmenzweige -->
  <ellipse
     cx="45"
     cy="220"
     rx="8"
     ry="4"
     fill="#2d5a3d"
     id="ellipse36" />
  <ellipse
     cx="55"
     cy="218"
     rx="8"
     ry="4"
     fill="#2d5a3d"
     id="ellipse37" />
  <ellipse
     cx="50"
     cy="222"
     rx="7"
     ry="3"
     fill="#3d7a4d"
     id="ellipse38" />
  <circle
     cx="50"
     cy="220"
     r="2.5"
     fill="#c41e3a"
     id="circle38" />
  <circle
     cx="54"
     cy="221"
     r="2"
     fill="#c41e3a"
     id="circle39" />
  <ellipse
     cx="165"
     cy="220"
     rx="8"
     ry="4"
     fill="#2d5a3d"
     id="ellipse39" />
  <ellipse
     cx="155"
     cy="218"
     rx="8"
     ry="4"
     fill="#2d5a3d"
     id="ellipse40" />
  <ellipse
     cx="160"
     cy="222"
     rx="7"
     ry="3"
     fill="#3d7a4d"
     id="ellipse41" />
  <circle
     cx="160"
     cy="220"
     r="2.5"
     fill="#c41e3a"
     id="circle41" />
  <circle
     cx="156"
     cy="221"
     r="2"
     fill="#c41e3a"
     id="circle42" />
  <!-- Rahmen für den Code -->
  <rect
     x="50"
     y="235"
     width="110"
     height="50"
     rx="8"
     fill="#2d5a3d"
     id="rect42" />
  <rect
     x="53"
     y="238"
     width="104"
     height="44"
     rx="6"
     fill="#f5f5f5"
     id="rect43" />
  <!-- Dekorative Ecken mit Sternen -->
  <polygon
     points="62.5,251 60,249 57.5,251 58.5,248 56,246 59,246 60,243 61,246 64,246 61.5,248 "
     fill="#ffd700"
     id="polygon43" />
  <polygon
     points="152.5,251 150,249 147.5,251 148.5,248 146,246 149,246 150,243 151,246 154,246 151.5,248 "
     fill="#ffd700"
     id="polygon44" />
  <polygon
     points="62.5,283 60,281 57.5,283 58.5,280 56,278 59,278 60,275 61,278 64,278 61.5,280 "
     fill="#ffd700"
     id="polygon45" />
  <polygon
     points="152.5,283 150,281 147.5,283 148.5,280 146,278 149,278 150,275 151,278 154,278 151.5,280 "
     fill="#ffd700"
     id="polygon46" />
  <!-- Weihnachtliche Bordüre -->
  <rect
     x="58"
     y="243"
     width="94"
     height="2"
     fill="#c41e3a"
     id="rect46" />
  <rect
     x="58"
     y="276"
     width="94"
     height="2"
     fill="#c41e3a"
     id="rect47" />
  <!-- Text -->
  <text
     x="107.65235"
     y="250.66798"
     font-family="Georgia, serif"
     font-size="7.8029px"
     fill="#2d5a3d"
     text-anchor="middle"
     font-weight="bold"
     id="text47"
     transform="scale(0.97536187,1.0252605)"
     style="stroke-width:0.975362">★ Frohe Weihnachten ★</text>
  <!-- Der 6-stellige Code -->
  <text
     x="99.075813"
     y="287.91495"
     font-family="Arial, sans-serif"
     font-size="17.8444px"
     fill="#2d5a3d"
     text-anchor="middle"
     font-weight="bold"
     letter-spacing="4"
     id="text48"
     transform="scale(1.0570521,0.94602718)"
     style="stroke-width:0.89222">(~qqt{</text>
</svg>
